# xmcd
#
# Track frame offsets:
#	150
#	13765
#	26804
#	40974
#	52475
#	69975
#	82425
#	96913
#	113041
#	127477
#
# Disc length: 1898 seconds
#
# Revision: 1
# Processed by: cddbd v1.5.2PL0 Copyright (c) Steve Scherf et al.
# Submitted via: audiograbber 1.83.01
#
DISCID=9a07680a
DTITLE=Vern Gosdin - Till The End
DYEAR=2008
DGENRE=Country
TTITLE0=Hangin' On
TTITLE1=Mother Country Music
TTITLE2=It Started All Over Again
TTITLE3=The Chokin' Kind
TTITLE4=The First Time Ever I Saw Your Face
TTITLE5=Till The End
TTITLE6=Yesterday's Gone
TTITLE7=Woman, Sensuous Woman
TTITLE8=Answers To My Questions
TTITLE9=We Make Beautiful Music Together
EXTD=
EXTT0=
EXTT1=
EXTT2=
EXTT3=
EXTT4=
EXTT5=
EXTT6=
EXTT7=
EXTT8=
EXTT9=
PLAYORDER=
